<?xml version="1.0" encoding="UTF-8" standalone="no"?>
<!-- Created with Inkscape (http://www.inkscape.org/) -->

<svg
   xmlns:dc="http://purl.org/dc/elements/1.1/"
   xmlns:cc="http://creativecommons.org/ns#"
   xmlns:rdf="http://www.w3.org/1999/02/22-rdf-syntax-ns#"
   xmlns:svg="http://www.w3.org/2000/svg"
   xmlns="http://www.w3.org/2000/svg"
   xmlns:sodipodi="http://sodipodi.sourceforge.net/DTD/sodipodi-0.dtd"
   xmlns:inkscape="http://www.inkscape.org/namespaces/inkscape"
   width="57.62915mm"
   height="43.075661mm"
   viewBox="0 0 57.629149 43.075661"
   version="1.1"
   id="svg1630"
   inkscape:version="0.92.1 r15371"
   sodipodi:docname="logo.svg">
  <defs
     id="defs1624">
    <clipPath
       clipPathUnits="userSpaceOnUse"
       id="clipPath1424">
      <path
         d="M 0,4437.452 H 1920 V 0 H 0 Z"
         id="path1422"
         inkscape:connector-curvature="0" />
    </clipPath>
  </defs>
  <sodipodi:namedview
     id="base"
     pagecolor="#ffffff"
     bordercolor="#666666"
     borderopacity="1.0"
     inkscape:pageopacity="0.0"
     inkscape:pageshadow="2"
     inkscape:zoom="1.4"
     inkscape:cx="-87.961212"
     inkscape:cy="43.571551"
     inkscape:document-units="mm"
     inkscape:current-layer="layer1"
     showgrid="false"
     inkscape:window-width="1920"
     inkscape:window-height="1017"
     inkscape:window-x="-8"
     inkscape:window-y="-8"
     inkscape:window-maximized="1"
     fit-margin-top="0"
     fit-margin-left="0"
     fit-margin-right="0"
     fit-margin-bottom="0" />
  <metadata
     id="metadata1627">
    <rdf:RDF>
      <cc:Work
         rdf:about="">
        <dc:format>image/svg+xml</dc:format>
        <dc:type
           rdf:resource="http://purl.org/dc/dcmitype/StillImage" />
        <dc:title></dc:title>
      </cc:Work>
    </rdf:RDF>
  </metadata>
  <g
     inkscape:label="Layer 1"
     inkscape:groupmode="layer"
     id="layer1"
     transform="translate(-52.958027,-77.955326)">
    <path
       d="m 63.753063,117.0849 0.423334,2.15195 1.481666,-0.28222 -0.105833,-0.49389 -0.9525,0.17639 -0.07056,-0.35278 0.776111,-0.14111 -0.105833,-0.49389 -0.740833,0.14111 -0.07056,-0.3175 0.881945,-0.17639 -0.07056,-0.49389 z"
       style="fill:#ffffff;fill-opacity:1;fill-rule:nonzero;stroke:none;stroke-width:0.35277775"
       id="path16799"
       inkscape:connector-curvature="0" />
    <path
       d="m 67.139764,116.4498 0.176389,1.09361 -1.164166,-0.91722 -0.03528,-0.0353 -0.211667,0.0353 0.388056,2.18722 0.529166,-0.0706 -0.211666,-1.09362 1.199444,0.91723 0.03528,0.0353 0.211667,-0.0353 -0.388056,-2.18723 z"
       style="fill:#ffffff;fill-opacity:1;fill-rule:nonzero;stroke:none;stroke-width:0.35277775"
       id="path16807"
       inkscape:connector-curvature="0" />
    <path
       d="m 68.86834,118.42539 c -0.07055,0 -0.141111,0 -0.211666,-0.0353 l -0.07056,-0.0353 -0.07055,-0.56444 0.246944,0.10583 c 0.03528,0 0.07056,0.0353 0.141111,0 0.07056,0 0.105833,-0.0353 0.07056,-0.10583 l -0.246945,-1.5875 0.529167,-0.0706 0.211667,1.55223 c 0.03528,0.21166 0,0.38805 -0.105834,0.52916 -0.07056,0.10584 -0.211666,0.17639 -0.423333,0.21167 h -0.07056"
       style="fill:#ffffff;fill-opacity:1;fill-rule:nonzero;stroke:none;stroke-width:0.35277775"
       id="path16815"
       inkscape:connector-curvature="0" />
    <path
       d="m 71.196711,116.37935 h -0.07056 c -0.176389,0.0353 -0.282222,0.10583 -0.388055,0.21167 -0.105834,0.10583 -0.141112,0.28222 -0.105834,0.45861 0.03528,0.35277 0.3175,0.56444 0.635,0.52916 0.176389,-0.0353 0.282222,-0.10583 0.388056,-0.21166 0.105833,-0.10584 0.141111,-0.28223 0.105833,-0.45861 -0.03528,-0.3175 -0.282222,-0.52917 -0.564444,-0.52917 m 0,1.72861 c -0.564445,0 -1.023056,-0.42333 -1.093611,-0.98778 -0.07056,-0.635 0.352777,-1.16416 0.987777,-1.23472 0.3175,-0.0353 0.599723,0.0353 0.811389,0.21167 0.246945,0.17639 0.388056,0.45861 0.423334,0.74083 0.03528,0.3175 -0.03528,0.59972 -0.211667,0.84667 -0.176389,0.24694 -0.458611,0.38805 -0.740833,0.42333 h -0.176385"
       style="fill:#ffffff;fill-opacity:1;fill-rule:nonzero;stroke:none;stroke-width:0.35277775"
       id="path16823"
       inkscape:connector-curvature="0" />
    <path
       d="m 73.454453,117.86091 -0.105833,-0.84667 -0.881945,-1.27 0.599723,-0.0353 0.529166,0.70555 0.352778,-0.81139 0.635,-0.0353 -0.670278,1.37584 0.07056,0.84666 z"
       style="fill:#ffffff;fill-opacity:1;fill-rule:nonzero;stroke:none;stroke-width:0.35277775"
       id="path16831"
       inkscape:connector-curvature="0" />
    <path
       d="m 76.664764,117.61407 -0.03528,-0.84667 -0.881945,-1.30527 0.635,-0.0353 0.493889,0.74083 0.388056,-0.77611 0.634999,-0.0353 -0.740833,1.37584 0.03528,0.84666 z"
       style="fill:#ffffff;fill-opacity:1;fill-rule:nonzero;stroke:none;stroke-width:0.35277775"
       id="path16839"
       inkscape:connector-curvature="0" />
    <path
       d="m 79.310598,115.81487 c 0,0 -0.03528,0 0,0 -0.176389,0 -0.3175,0.0706 -0.423334,0.17639 -0.105833,0.10583 -0.176389,0.28222 -0.176389,0.45861 0,0.17639 0.07056,0.3175 0.176389,0.42333 0.105834,0.10584 0.246945,0.17639 0.423334,0.14111 0.176389,0 0.3175,-0.0705 0.423333,-0.17638 0.105833,-0.10584 0.141111,-0.28223 0.141111,-0.45862 0,-0.17638 -0.07055,-0.3175 -0.176389,-0.42333 -0.105833,-0.10583 -0.246944,-0.14111 -0.388055,-0.14111 m 0,1.72861 c -0.282223,0 -0.564445,-0.10583 -0.776111,-0.3175 -0.211667,-0.21167 -0.352778,-0.49389 -0.352778,-0.77611 0,-0.3175 0.105833,-0.59972 0.3175,-0.81139 0.211666,-0.21167 0.493889,-0.35278 0.776111,-0.35278 0.635,0 1.128889,0.45861 1.164167,1.09361 0,0.635 -0.493889,1.12889 -1.128889,1.16417"
       style="fill:#ffffff;fill-opacity:1;fill-rule:nonzero;stroke:none;stroke-width:0.35277775"
       id="path16847"
       inkscape:connector-curvature="0" />
    <path
       d="m 81.92112,117.50813 c -0.529167,0 -0.881945,-0.3175 -0.881945,-0.84666 v -1.37584 h 0.529167 v 1.37584 c 0,0.0705 0,0.17639 0.07056,0.24694 0.07055,0.0706 0.176388,0.10583 0.246944,0.0706 0.07056,0 0.176389,0 0.246943,-0.0706 0.07056,-0.0706 0.07056,-0.14111 0.07056,-0.24694 v -1.37584 h 0.529166 v 1.37584 c 0,0.24694 -0.07056,0.45861 -0.246943,0.635 -0.07056,0.14111 -0.282223,0.21166 -0.564445,0.21166"
       style="fill:#ffffff;fill-opacity:1;fill-rule:nonzero;stroke:none;stroke-width:0.35277775"
       id="path16855"
       inkscape:connector-curvature="0" />
    <path
       d="m 84.143547,116.27341 h 0.246946 c 0.176387,0 0.246944,-0.0706 0.282221,-0.21167 0,-0.14111 -0.105834,-0.21166 -0.282221,-0.24694 h -0.211666 z m 1.12889,1.27 H 84.672714 L 84.28466,116.7673 h -0.17639 l -0.03528,0.74083 h -0.529166 l 0.07055,-2.18722 0.776113,0.0353 c 0.246944,0 0.423334,0.0705 0.564444,0.21166 0.14111,0.14112 0.211666,0.3175 0.211666,0.52917 0,0.24695 -0.14111,0.45861 -0.352776,0.59972 z"
       style="fill:#ffffff;fill-opacity:1;fill-rule:nonzero;stroke:none;stroke-width:0.35277775"
       id="path16863"
       inkscape:connector-curvature="0" />
    <path
       d="m 88.870733,117.75515 -0.529167,-0.0353 0.07056,-1.02306 -0.493887,0.52917 -0.458613,-0.59972 -0.07055,1.02305 -0.529167,-0.0353 0.176388,-2.2225 h 0.176389 l 0.07056,0.0706 0.670277,0.98778 0.881943,-0.91722 h 0.211667 l -0.03528,0.14111 z"
       style="fill:#ffffff;fill-opacity:1;fill-rule:nonzero;stroke:none;stroke-width:0.35277775"
       id="path16871"
       inkscape:connector-curvature="0" />
    <path
       d="m 90.740562,116.20296 c -0.14111,0 -0.246944,0.0353 -0.352777,0.14111 -0.105833,0.10583 -0.17639,0.24695 -0.211667,0.42333 0,0.17639 0.03528,0.3175 0.105834,0.45862 0.105833,0.10583 0.246943,0.21166 0.388056,0.21166 0.3175,0.0353 0.599721,-0.21166 0.635,-0.52916 0.03528,-0.35278 -0.17639,-0.635 -0.49389,-0.67028 -0.03528,-0.0353 -0.03528,-0.0353 -0.07056,-0.0353 m 0,1.76389 h -0.105833 c -0.3175,-0.0353 -0.564444,-0.17639 -0.776111,-0.38806 -0.176387,-0.24694 -0.28222,-0.52916 -0.246943,-0.84666 0.03528,-0.3175 0.17639,-0.56445 0.388056,-0.77611 0.246944,-0.17639 0.529164,-0.28223 0.811387,-0.24695 0.635,0.0706 1.058334,0.59972 0.987777,1.23472 0,0.56445 -0.45861,1.02306 -1.058333,1.02306"
       style="fill:#ffffff;fill-opacity:1;fill-rule:nonzero;stroke:none;stroke-width:0.35277775"
       id="path16879"
       inkscape:connector-curvature="0" />
    <path
       d="m 94.374101,118.35476 -0.529167,-0.0705 0.141113,-0.98778 -0.564444,0.49389 -0.388056,-0.635 -0.14111,1.02305 -0.529167,-0.0705 0.3175,-2.2225 0.211667,0.0353 0.03528,0.0706 0.599723,0.98778 0.91722,-0.84667 0.211667,0.0353 v 0.14111 z"
       style="fill:#ffffff;fill-opacity:1;fill-rule:nonzero;stroke:none;stroke-width:0.35277775"
       id="path16887"
       inkscape:connector-curvature="0" />
    <path
       d="m 95.150283,118.49602 1.481666,0.21166 0.07056,-0.45861 -0.9525,-0.17639 0.07056,-0.35278 0.77611,0.14112 0.07056,-0.49389 -0.776113,-0.14111 0.07056,-0.3175 0.917223,0.14111 0.07055,-0.49389 -1.446387,-0.24695 z"
       style="fill:#ffffff;fill-opacity:1;fill-rule:nonzero;stroke:none;stroke-width:0.35277775"
       id="path16895"
       inkscape:connector-curvature="0" />
    <path
       d="m 97.266949,118.81348 0.529167,0.10583 0.211667,-1.05833 0.776112,1.23472 0.03528,0.0706 0.17639,0.0353 0.423333,-2.18723 -0.529166,-0.10583 -0.211667,1.09361 -0.776113,-1.27 -0.03528,-0.0353 -0.176389,-0.0705 z"
       style="fill:#ffffff;fill-opacity:1;fill-rule:nonzero;stroke:none;stroke-width:0.35277775"
       id="path16903"
       inkscape:connector-curvature="0" />
    <path
       d="m 99.912783,117.61407 0.564447,0.14111 -0.35278,1.65806 0.52917,0.10583 0.35277,-1.65805 0.56445,0.10583 0.10583,-0.45861 -1.65805,-0.38806 z"
       style="fill:#ffffff;fill-opacity:1;fill-rule:nonzero;stroke:none;stroke-width:0.35277775"
       id="path16911"
       inkscape:connector-curvature="0" />
    <path
       d="m 63.470734,113.09841 c -0.529166,0 -1.128889,-0.14111 -1.658055,-0.81139 -0.705556,-0.9525 -0.246945,-2.2225 -0.141111,-2.46944 0.03528,-0.10584 0.141111,-0.14111 0.246944,-0.10584 0.105833,0.0353 0.141111,0.14111 0.105833,0.24695 -0.07055,0.14111 -0.493888,1.30528 0.105834,2.08139 0.564444,0.77611 1.305278,0.70555 1.799166,0.635 h 0.03528 c 0.141111,0 0.529167,-0.0706 1.093611,-0.17639 2.8575,-0.45861 10.4775,-1.65806 17.921112,-1.65806 7.055554,0 14.040554,1.19945 16.65111,1.62278 0.529162,0.10583 0.917222,0.17639 1.093612,0.17639 h 0.0353 c 0.49389,0.0353 1.19945,0.10583 1.79917,-0.635 0.59972,-0.77611 0.14111,-1.94028 0.10583,-2.08139 -0.0353,-0.10583 0,-0.21167 0.10584,-0.24694 0.10583,-0.0353 0.21166,0 0.24694,0.10583 0.10584,0.24694 0.56445,1.51694 -0.14111,2.46944 -0.70556,0.9525 -1.58751,0.84667 -2.11667,0.77611 h -0.0353 c -0.17639,0 -0.52917,-0.0705 -1.093612,-0.17638 -2.610556,-0.45862 -9.595556,-1.62278 -16.580556,-1.62278 -7.44361,0 -15.028332,1.19944 -17.885832,1.65805 -0.564445,0.10584 -0.9525,0.14111 -1.093611,0.17639 -0.246945,0.0353 -0.423334,0.0353 -0.599723,0.0353"
       style="fill:#ffffff;fill-opacity:1;fill-rule:nonzero;stroke:none;stroke-width:0.35277775"
       id="path16915"
       inkscape:connector-curvature="0" />
    <path
       d="m 103.8638,82.547828 v -2.928056 h -8.925287 v 11.500556 c 1.869723,0.388055 3.527779,1.093611 4.7625,2.010833 1.340557,-0.493889 2.892777,-0.776111 4.445007,-0.776111 v -2.046111 h -5.750284 v -2.610556 h 4.656674 v -2.751666 h -4.656674 v -2.398889 z"
       style="fill:#ffffff;fill-opacity:1;fill-rule:nonzero;stroke:none;stroke-width:0.35277775"
       id="path16919"
       inkscape:connector-curvature="0" />
    <path
       d="m 81.391953,90.87342 v -4.550834 l 0.881945,0.740834 c 0.846667,0.811389 1.693333,1.622777 2.54,2.434166 0.846667,-0.811389 1.693333,-1.622777 2.54,-2.434166 l 0.881944,-0.740834 v 4.7625 c 1.023056,-0.211666 2.04611,-0.3175 3.069166,-0.3175 h 0.246944 V 79.44342 h -0.105834 l -6.63222,6.0325 -6.632223,-6.0325 h -0.07055 v 11.394722 c 0.458611,-0.03528 0.917222,-0.07056 1.375833,-0.07056 0.670278,0 1.305278,0.03528 1.905,0.105834"
       style="fill:#ffffff;fill-opacity:1;fill-rule:nonzero;stroke:none;stroke-width:0.35277775"
       id="path16923"
       inkscape:connector-curvature="0" />
    <path
       d="m 71.267159,92.28453 c 0.493889,0 1.023055,-0.03528 1.516944,-0.03528 0.599722,-0.282222 1.27,-0.529166 1.940278,-0.740833 V 79.619808 h -3.457222 z"
       style="fill:#ffffff;fill-opacity:1;fill-rule:nonzero;stroke:none;stroke-width:0.35277775"
       id="path16927"
       inkscape:connector-curvature="0" />
    <path
       d="m 65.375877,91.755363 v -9.207499 h 3.633611 V 79.619808 H 58.249766 v 2.928056 h 3.633611 v 8.360833 c 1.234723,0.176389 2.434167,0.458611 3.4925,0.846666"
       style="fill:#ffffff;fill-opacity:1;fill-rule:nonzero;stroke:none;stroke-width:0.35277775"
       id="path16931"
       inkscape:connector-curvature="0" />
    <path
       d="m 62.483029,104.63174 h 0.599722 c 0.3175,0 0.599722,-0.14111 0.599722,-0.49389 0,-0.35277 -0.282222,-0.52916 -0.564444,-0.52916 h -0.599722 v 1.02305 z m 0.458611,-1.79916 c 0.141111,0 0.246945,0 0.352778,-0.0706 0.141111,-0.0706 0.211667,-0.21167 0.211667,-0.38806 0,-0.35277 -0.246945,-0.49388 -0.564445,-0.49388 h -0.493889 v 0.9525 z m 1.905,1.34055 c 0,0.91722 -0.776111,1.37583 -1.869722,1.37583 H 61.35414 v -4.58611 h 1.516945 c 0.987777,0 1.799166,0.42334 1.799166,1.30528 0,0.45861 -0.282222,0.74083 -0.599722,0.88195 0.423333,0.10583 0.776111,0.52916 0.776111,1.02305"
       style="fill:#ffffff;fill-opacity:1;fill-rule:nonzero;stroke:none;stroke-width:0.35277775"
       id="path16935"
       inkscape:connector-curvature="0" />
    <path
       d="m 68.727264,101.9506 v 1.16416 h 0.599723 c 0.352777,0 0.599722,-0.17638 0.599722,-0.59972 0,-0.38805 -0.282222,-0.56444 -0.635,-0.56444 z m 0.529167,-0.98778 c 1.093611,0 1.834444,0.52917 1.834444,1.55222 0,0.67028 -0.352777,1.09361 -0.846666,1.34056 l 0.917222,1.69333 h -1.199445 l -0.740833,-1.51694 h -0.493889 v 1.51694 h -1.128889 v -4.58611 z"
       style="fill:#ffffff;fill-opacity:1;fill-rule:nonzero;stroke:none;stroke-width:0.35277775"
       id="path16939"
       inkscape:connector-curvature="0" />
    <path
       d="m 73.912992,105.549 v -4.58611 h 2.998611 v 0.98778 h -1.834444 v 0.81139 h 1.5875 v 0.91722 h -1.5875 v 0.88194 h 1.940277 v 0.98778 z"
       style="fill:#ffffff;fill-opacity:1;fill-rule:nonzero;stroke:none;stroke-width:0.35277775"
       id="path16943"
       inkscape:connector-curvature="0" />
    <path
       d="m 80.580458,100.96289 0.564444,1.37583 c 0.141111,0.35278 0.246945,0.67028 0.352778,0.91723 0.03528,-0.0706 0.176389,-0.42334 0.246944,-0.59973 l 0.211667,-0.49389 0.564445,-1.19944 h 0.03528 c 0.352777,0.77611 0.811389,1.69333 1.023056,2.29306 0.105833,-0.17639 0.740833,-1.79917 0.917221,-2.29306 h 1.305279 l -2.151946,4.65667 h -0.07055 l -0.81139,-1.83445 -0.211666,-0.45861 c -0.07056,0.14111 -0.141111,0.3175 -0.211667,0.45861 l -0.846666,1.83445 h -0.07056 l -2.151944,-4.65667 z"
       style="fill:#ffffff;fill-opacity:1;fill-rule:nonzero;stroke:none;stroke-width:0.35277775"
       id="path16947"
       inkscape:connector-curvature="0" />
    <path
       d="m 88.37688,105.549 v -4.58611 h 2.998613 v 0.98778 h -1.834446 v 0.81139 h 1.552223 v 0.91722 h -1.552223 v 0.88194 h 1.905 v 0.98778 z"
       style="fill:#ffffff;fill-opacity:1;fill-rule:nonzero;stroke:none;stroke-width:0.35277775"
       id="path16951"
       inkscape:connector-curvature="0" />
    <path
       d="m 95.326672,101.9506 v 1.16416 h 0.599723 c 0.352777,0 0.599723,-0.17638 0.599723,-0.59972 0,-0.38805 -0.282223,-0.56444 -0.635,-0.56444 z m 0.529167,-0.98778 c 1.093613,0 1.834446,0.52917 1.834446,1.55222 0,0.67028 -0.352779,1.09361 -0.846667,1.34056 l 0.917221,1.69333 h -1.199444 l -0.740833,-1.51694 h -0.49389 v 1.51694 h -1.128887 v -4.58611 z"
       style="fill:#ffffff;fill-opacity:1;fill-rule:nonzero;stroke:none;stroke-width:0.35277775"
       id="path16955"
       inkscape:connector-curvature="0" />
    <path
       d="m 101.18282,100.96289 0.91723,1.72861 0.9525,-1.72861 h 1.30528 l -1.65806,2.82222 v 1.76389 h -1.16417 v -1.76389 l -1.693334,-2.82222 z"
       style="fill:#ffffff;fill-opacity:1;fill-rule:nonzero;stroke:none;stroke-width:0.35277775"
       id="path16959"
       inkscape:connector-curvature="0" />
    <path
       d="M 109.0497,96.835329 H 55.78025 c -0.105833,0 -0.176389,-0.105833 -0.176389,-0.211667 0,-0.105833 0.07056,-0.176389 0.176389,-0.176389 h 53.26945 c 0.10583,0 0.17639,0.07056 0.17639,0.176389 0.0353,0.105834 -0.0706,0.211667 -0.17639,0.211667"
       style="fill:#ffffff;fill-opacity:1;fill-rule:nonzero;stroke:none;stroke-width:0.35277775"
       id="path16963"
       inkscape:connector-curvature="0" />
  </g>
</svg>
